<svg xmlns="http://www.w3.org/2000/svg" xmlns:xlink="http://www.w3.org/1999/xlink" width="300" zoomAndPan="magnify" viewBox="0 0 224.87999 60" height="80" preserveAspectRatio="xMidYMid meet" version="1.0"><defs><g/><clipPath id="ef16470fbc"><path d="M 0 0.015625 L 224.761719 0.015625 L 224.761719 59.984375 L 0 59.984375 Z M 0 0.015625 " clip-rule="nonzero"/></clipPath><clipPath id="a067927bf6"><rect x="0" width="223" y="0" height="45"/></clipPath></defs><g clip-path="url(#ef16470fbc)"><path fill="#ffffff" d="M 0 0.015625 L 224.878906 0.015625 L 224.878906 59.984375 L 0 59.984375 Z M 0 0.015625 " fill-opacity="1" fill-rule="nonzero"/><path fill="#ffffff" d="M 0 0.015625 L 224.878906 0.015625 L 224.878906 59.984375 L 0 59.984375 Z M 0 0.015625 " fill-opacity="1" fill-rule="nonzero"/></g><g transform="matrix(1, 0, 0, 1, 0, 7)"><g clip-path="url(#a067927bf6)"><g fill="#000000" fill-opacity="1"><g transform="translate(0.000000000000010652, 35.3684)"><g><path d="M 11.3125 0.375 C 9.5625 0.375 8.03125 0.0976562 6.71875 -0.453125 C 5.40625 -1.015625 4.300781 -1.753906 3.40625 -2.671875 C 2.507812 -3.585938 1.832031 -4.65625 1.375 -5.875 C 0.925781 -7.09375 0.703125 -8.363281 0.703125 -9.6875 C 0.703125 -11.007812 0.925781 -12.28125 1.375 -13.5 C 1.832031 -14.71875 2.507812 -15.785156 3.40625 -16.703125 C 4.300781 -17.628906 5.40625 -18.367188 6.71875 -18.921875 C 8.03125 -19.472656 9.5625 -19.75 11.3125 -19.75 C 13.03125 -19.75 14.550781 -19.472656 15.875 -18.921875 C 17.207031 -18.367188 18.320312 -17.628906 19.21875 -16.703125 C 20.113281 -15.785156 20.785156 -14.71875 21.234375 -13.5 C 21.691406 -12.28125 21.921875 -11.007812 21.921875 -9.6875 C 21.921875 -8.363281 21.691406 -7.09375 21.234375 -5.875 C 20.785156 -4.65625 20.113281 -3.585938 19.21875 -2.671875 C 18.320312 -1.753906 17.207031 -1.015625 15.875 -0.453125 C 14.550781 0.0976562 13.03125 0.375 11.3125 0.375 Z M 7.890625 -9.6875 C 7.890625 -8.382812 8.207031 -7.363281 8.84375 -6.625 C 9.476562 -5.894531 10.300781 -5.53125 11.3125 -5.53125 C 12.320312 -5.53125 13.144531 -5.894531 13.78125 -6.625 C 14.414062 -7.363281 14.734375 -8.382812 14.734375 -9.6875 C 14.734375 -10.988281 14.414062 -12.007812 13.78125 -12.75 C 13.144531 -13.488281 12.320312 -13.859375 11.3125 -13.859375 C 10.300781 -13.859375 9.476562 -13.488281 8.84375 -12.75 C 8.207031 -12.007812 7.890625 -10.988281 7.890625 -9.6875 Z M 7.890625 -9.6875 "/></g></g></g><g fill="#000000" fill-opacity="1"><g transform="translate(22.252278, 35.3684)"><g><path d="M 33.015625 0 L 26.015625 0 L 26.015625 -10.90625 C 26.015625 -11.863281 25.820312 -12.554688 25.4375 -12.984375 C 25.0625 -13.410156 24.601562 -13.625 24.0625 -13.625 C 23.5 -13.625 22.898438 -13.363281 22.265625 -12.84375 C 21.640625 -12.332031 21.179688 -11.675781 20.890625 -10.875 L 20.890625 0 L 13.890625 0 L 13.890625 -10.90625 C 13.890625 -11.863281 13.695312 -12.554688 13.3125 -12.984375 C 12.9375 -13.410156 12.476562 -13.625 11.9375 -13.625 C 11.375 -13.625 10.78125 -13.363281 10.15625 -12.84375 C 9.53125 -12.332031 9.066406 -11.675781 8.765625 -10.875 L 8.765625 0 L 1.765625 0 L 1.765625 -19.375 L 8.0625 -19.375 L 8.0625 -16.5 C 8.75 -17.5625 9.695312 -18.367188 10.90625 -18.921875 C 12.113281 -19.472656 13.535156 -19.75 15.171875 -19.75 C 15.960938 -19.75 16.648438 -19.65625 17.234375 -19.46875 C 17.828125 -19.289062 18.335938 -19.039062 18.765625 -18.71875 C 19.203125 -18.394531 19.546875 -18.035156 19.796875 -17.640625 C 20.054688 -17.253906 20.257812 -16.835938 20.40625 -16.390625 C 21.09375 -17.453125 22.03125 -18.273438 23.21875 -18.859375 C 24.414062 -19.453125 25.773438 -19.75 27.296875 -19.75 C 28.578125 -19.75 29.59375 -19.507812 30.34375 -19.03125 C 31.09375 -18.550781 31.660156 -17.953125 32.046875 -17.234375 C 32.441406 -16.523438 32.703125 -15.765625 32.828125 -14.953125 C 32.953125 -14.148438 33.015625 -13.414062 33.015625 -12.75 Z M 33.015625 0 "/></g></g></g><g fill="#000000" fill-opacity="1"><g transform="translate(56.514941, 35.3684)"><g><path d="M 14.109375 0.375 C 11.191406 0.375 9.101562 -0.753906 7.84375 -3.015625 L 7.84375 0 L 1.765625 0 L 1.765625 -26.890625 L 8.765625 -26.890625 L 8.765625 -16.5 C 9.328125 -17.5625 10.125 -18.367188 11.15625 -18.921875 C 12.195312 -19.472656 13.414062 -19.75 14.8125 -19.75 C 15.988281 -19.75 17.085938 -19.488281 18.109375 -18.96875 C 19.128906 -18.457031 20.003906 -17.753906 20.734375 -16.859375 C 21.472656 -15.960938 22.050781 -14.894531 22.46875 -13.65625 C 22.882812 -12.414062 23.09375 -11.066406 23.09375 -9.609375 C 23.09375 -8.160156 22.863281 -6.828125 22.40625 -5.609375 C 21.957031 -4.398438 21.332031 -3.351562 20.53125 -2.46875 C 19.738281 -1.582031 18.789062 -0.882812 17.6875 -0.375 C 16.582031 0.125 15.390625 0.375 14.109375 0.375 Z M 12.078125 -5.53125 C 13.234375 -5.53125 14.160156 -5.894531 14.859375 -6.625 C 15.566406 -7.363281 15.921875 -8.347656 15.921875 -9.578125 C 15.921875 -10.171875 15.828125 -10.722656 15.640625 -11.234375 C 15.453125 -11.753906 15.203125 -12.207031 14.890625 -12.59375 C 14.585938 -12.988281 14.222656 -13.296875 13.796875 -13.515625 C 13.367188 -13.742188 12.894531 -13.859375 12.375 -13.859375 C 11.644531 -13.859375 10.945312 -13.59375 10.28125 -13.0625 C 9.613281 -12.53125 9.109375 -11.835938 8.765625 -10.984375 L 8.765625 -7.515625 C 9.671875 -6.191406 10.773438 -5.53125 12.078125 -5.53125 Z M 12.078125 -5.53125 "/></g></g></g><g fill="#000000" fill-opacity="1"><g transform="translate(79.982997, 35.3684)"><g><path d="M 14.921875 -13.40625 C 13.566406 -13.40625 12.335938 -13.257812 11.234375 -12.96875 C 10.128906 -12.675781 9.304688 -12.1875 8.765625 -11.5 L 8.765625 0 L 1.765625 0 L 1.765625 -19.375 L 8.171875 -19.375 L 8.171875 -15.703125 C 8.867188 -16.992188 9.722656 -17.988281 10.734375 -18.6875 C 11.753906 -19.394531 12.851562 -19.75 14.03125 -19.75 C 14.5 -19.75 14.796875 -19.738281 14.921875 -19.71875 Z M 14.921875 -13.40625 "/></g></g></g><g fill="#000000" fill-opacity="1"><g transform="translate(94.97747, 35.3684)"><g><path d="M 11.3125 0.375 C 9.613281 0.375 8.101562 0.109375 6.78125 -0.421875 C 5.457031 -0.953125 4.34375 -1.671875 3.4375 -2.578125 C 2.539062 -3.484375 1.859375 -4.523438 1.390625 -5.703125 C 0.929688 -6.890625 0.703125 -8.132812 0.703125 -9.4375 C 0.703125 -10.832031 0.925781 -12.15625 1.375 -13.40625 C 1.832031 -14.664062 2.507812 -15.757812 3.40625 -16.6875 C 4.300781 -17.625 5.40625 -18.367188 6.71875 -18.921875 C 8.03125 -19.472656 9.5625 -19.75 11.3125 -19.75 C 13.03125 -19.75 14.550781 -19.472656 15.875 -18.921875 C 17.207031 -18.367188 18.320312 -17.628906 19.21875 -16.703125 C 20.113281 -15.785156 20.785156 -14.71875 21.234375 -13.5 C 21.691406 -12.28125 21.921875 -11.007812 21.921875 -9.6875 C 21.921875 -9.320312 21.898438 -8.945312 21.859375 -8.5625 C 21.828125 -8.1875 21.785156 -7.847656 21.734375 -7.546875 L 8.140625 -7.546875 C 8.210938 -6.515625 8.59375 -5.769531 9.28125 -5.3125 C 9.96875 -4.863281 10.71875 -4.640625 11.53125 -4.640625 C 12.289062 -4.640625 13.007812 -4.8125 13.6875 -5.15625 C 14.363281 -5.5 14.8125 -5.976562 15.03125 -6.59375 L 20.96875 -4.90625 C 20.175781 -3.351562 18.960938 -2.082031 17.328125 -1.09375 C 15.703125 -0.113281 13.695312 0.375 11.3125 0.375 Z M 14.40625 -11.75 C 14.28125 -12.6875 13.9375 -13.425781 13.375 -13.96875 C 12.8125 -14.507812 12.085938 -14.78125 11.203125 -14.78125 C 10.316406 -14.78125 9.585938 -14.507812 9.015625 -13.96875 C 8.453125 -13.425781 8.113281 -12.6875 8 -11.75 Z M 14.40625 -11.75 "/></g></g></g><g fill="#000000" fill-opacity="1"><g transform="translate(117.082378, 35.3684)"><g/></g></g><g fill="#000000" fill-opacity="1"><g transform="translate(125.00325, 35.3684)"><g><path d="M 11.3125 0.375 C 9.613281 0.375 8.101562 0.109375 6.78125 -0.421875 C 5.457031 -0.953125 4.34375 -1.671875 3.4375 -2.578125 C 2.539062 -3.484375 1.859375 -4.523438 1.390625 -5.703125 C 0.929688 -6.890625 0.703125 -8.132812 0.703125 -9.4375 C 0.703125 -10.832031 0.925781 -12.15625 1.375 -13.40625 C 1.832031 -14.664062 2.507812 -15.757812 3.40625 -16.6875 C 4.300781 -17.625 5.40625 -18.367188 6.71875 -18.921875 C 8.03125 -19.472656 9.5625 -19.75 11.3125 -19.75 C 13.03125 -19.75 14.550781 -19.472656 15.875 -18.921875 C 17.207031 -18.367188 18.320312 -17.628906 19.21875 -16.703125 C 20.113281 -15.785156 20.785156 -14.71875 21.234375 -13.5 C 21.691406 -12.28125 21.921875 -11.007812 21.921875 -9.6875 C 21.921875 -9.320312 21.898438 -8.945312 21.859375 -8.5625 C 21.828125 -8.1875 21.785156 -7.847656 21.734375 -7.546875 L 8.140625 -7.546875 C 8.210938 -6.515625 8.59375 -5.769531 9.28125 -5.3125 C 9.96875 -4.863281 10.71875 -4.640625 11.53125 -4.640625 C 12.289062 -4.640625 13.007812 -4.8125 13.6875 -5.15625 C 14.363281 -5.5 14.8125 -5.976562 15.03125 -6.59375 L 20.96875 -4.90625 C 20.175781 -3.351562 18.960938 -2.082031 17.328125 -1.09375 C 15.703125 -0.113281 13.695312 0.375 11.3125 0.375 Z M 14.40625 -11.75 C 14.28125 -12.6875 13.9375 -13.425781 13.375 -13.96875 C 12.8125 -14.507812 12.085938 -14.78125 11.203125 -14.78125 C 10.316406 -14.78125 9.585938 -14.507812 9.015625 -13.96875 C 8.453125 -13.425781 8.113281 -12.6875 8 -11.75 Z M 14.40625 -11.75 "/></g></g></g><g fill="#000000" fill-opacity="1"><g transform="translate(147.108158, 35.3684)"><g/></g></g><g fill="#000000" fill-opacity="1"><g transform="translate(155.029039, 35.3684)"><g><path d="M 1.65625 -26.890625 L 8.65625 -26.890625 L 8.65625 -8.171875 C 8.65625 -6.703125 9.257812 -5.96875 10.46875 -5.96875 C 10.757812 -5.96875 11.078125 -6.015625 11.421875 -6.109375 C 11.765625 -6.210938 12.082031 -6.347656 12.375 -6.515625 L 13.265625 -0.890625 C 12.429688 -0.492188 11.488281 -0.1875 10.4375 0.03125 C 9.394531 0.257812 8.410156 0.375 7.484375 0.375 C 5.609375 0.375 4.164062 -0.101562 3.15625 -1.0625 C 2.15625 -2.019531 1.65625 -3.410156 1.65625 -5.234375 Z M 1.65625 -26.890625 "/></g></g></g><g fill="#000000" fill-opacity="1"><g transform="translate(168.034047, 35.3684)"><g><path d="M 7.65625 0.375 C 5.695312 0.375 4.203125 -0.21875 3.171875 -1.40625 C 2.140625 -2.601562 1.625 -4.34375 1.625 -6.625 L 1.625 -19.375 L 8.625 -19.375 L 8.625 -8.21875 C 8.625 -7.351562 8.8125 -6.6875 9.1875 -6.21875 C 9.570312 -5.757812 10.097656 -5.53125 10.765625 -5.53125 C 11.296875 -5.53125 11.84375 -5.648438 12.40625 -5.890625 C 12.976562 -6.140625 13.546875 -6.679688 14.109375 -7.515625 L 14.109375 -19.375 L 21.109375 -19.375 L 21.109375 -7.734375 C 21.109375 -7.078125 21.226562 -6.617188 21.46875 -6.359375 C 21.71875 -6.097656 22.164062 -5.941406 22.8125 -5.890625 L 22.8125 0 C 22.09375 0.125 21.460938 0.21875 20.921875 0.28125 C 20.378906 0.34375 19.898438 0.375 19.484375 0.375 C 17.109375 0.375 15.734375 -0.523438 15.359375 -2.328125 L 15.21875 -3.015625 C 14.3125 -1.816406 13.226562 -0.953125 11.96875 -0.421875 C 10.71875 0.109375 9.28125 0.375 7.65625 0.375 Z M 7.65625 0.375 "/></g></g></g><g fill="#000000" fill-opacity="1"><g transform="translate(191.465251, 35.3684)"><g><path d="M 0.703125 -9.6875 C 0.703125 -11.007812 0.929688 -12.28125 1.390625 -13.5 C 1.859375 -14.71875 2.539062 -15.785156 3.4375 -16.703125 C 4.34375 -17.628906 5.457031 -18.367188 6.78125 -18.921875 C 8.101562 -19.472656 9.625 -19.75 11.34375 -19.75 C 13.707031 -19.75 15.679688 -19.253906 17.265625 -18.265625 C 18.847656 -17.285156 20.03125 -16.023438 20.8125 -14.484375 L 14 -12.421875 C 13.332031 -13.378906 12.4375 -13.859375 11.3125 -13.859375 C 10.351562 -13.859375 9.539062 -13.492188 8.875 -12.765625 C 8.21875 -12.035156 7.890625 -11.007812 7.890625 -9.6875 C 7.890625 -8.363281 8.21875 -7.335938 8.875 -6.609375 C 9.539062 -5.890625 10.351562 -5.53125 11.3125 -5.53125 C 12.4375 -5.53125 13.332031 -6.007812 14 -6.96875 L 20.8125 -4.90625 C 20.03125 -3.351562 18.847656 -2.082031 17.265625 -1.09375 C 15.679688 -0.113281 13.707031 0.375 11.34375 0.375 C 9.625 0.375 8.101562 0.0976562 6.78125 -0.453125 C 5.457031 -1.015625 4.34375 -1.753906 3.4375 -2.671875 C 2.539062 -3.585938 1.859375 -4.65625 1.390625 -5.875 C 0.929688 -7.09375 0.703125 -8.363281 0.703125 -9.6875 Z M 0.703125 -9.6875 "/></g></g></g><g fill="#000000" fill-opacity="1"><g transform="translate(212.317554, 35.3684)"><g><path d="M 1.765625 0 L 1.765625 -19.375 L 8.765625 -19.375 L 8.765625 0 Z M 1.765625 -21 L 1.765625 -26.890625 L 8.765625 -26.890625 L 8.765625 -21 Z M 1.765625 -21 "/></g></g></g></g></g></svg>
